<?xml version="1.0" encoding="UTF-8"?>
<svg version="1.1" xmlns="http://www.w3.org/2000/svg" width="665" height="375">
<path d="M0 0 C1.19625 -0.00773437 2.3925 -0.01546875 3.625 -0.0234375 C7.21616379 0.40051934 9.15901549 1.16893248 12 3.375 C12 4.035 12 4.695 12 5.375 C12.598125 5.560625 13.19625 5.74625 13.8125 5.9375 C17.02369724 8.04771533 18.05623177 10.78457737 19 14.375 C19.81033368 20.38679988 19.16272707 27.08805326 16 32.375 C13.953125 33.01171875 13.953125 33.01171875 12 33.375 C10.94978897 35.22471696 10.94978897 35.22471696 10 37.375 C8 39.625 8 39.625 6 41.375 C5.34 41.375 4.68 41.375 4 41.375 C3.731875 42.179375 3.46375 42.98375 3.1875 43.8125 C2.795625 44.658125 2.40375 45.50375 2 46.375 C1.01 46.705 0.02 47.035 -1 47.375 C-1.7425 48.6125 -1.7425 48.6125 -2.5 49.875 C-4 52.375 -4 52.375 -7 53.375 C-7.268125 53.9525 -7.53625 54.53 -7.8125 55.125 C-9.55133944 58.41964314 -12.07645336 60.08700698 -15 62.375 C-13.906875 62.74625 -12.81375 63.1175 -11.6875 63.5 C-3.31454569 66.6875984 4.0561384 71.19175131 11.1875 76.5625 C11.76459717 76.99054932 12.34169434 77.41859863 12.9362793 77.85961914 C14.54296875 79.10546875 14.54296875 79.10546875 17 81.375 C17 82.365 17 83.355 17 84.375 C17.556875 84.436875 18.11375 84.49875 18.6875 84.5625 C23.35060463 86.20088811 26.18279873 90.58682692 29.3125 94.25 C32.38983254 97.81322716 35.70746945 100.89408028 39.30078125 103.9296875 C41 105.375 41 105.375 43 107.375 C43 108.365 43 109.355 43 110.375 C43.60457031 110.48070312 44.20914063 110.58640625 44.83203125 110.6953125 C47.859997 111.64462068 49.23207046 113.56685568 50.953125 116.1484375 C53.50599146 121.57804153 53.35687777 127.39595055 52.3125 133.1875 C49.94283546 138.9423996 48.04398151 142.21735471 42.25 144.75 C36.72583364 146.66687764 32.22328895 147.75490475 26.609375 145.3515625 C22.98885186 143.42450986 19.68252165 141.5314056 17 138.375 C17 137.715 17 137.055 17 136.375 C16.43796875 136.1378125 15.8759375 135.900625 15.296875 135.65625 C12.48105958 134.08552303 10.52044584 132.16028536 8.25 129.875 C7.05117188 128.68390625 7.05117188 128.68390625 5.828125 127.46875 C4 125.375 4 125.375 4 123.375 C3.38125 123.1275 2.7625 122.88 2.125 122.625 C-0.40358627 121.13759631 -0.71839004 119.93821991 -2 117.375 C-3.93330603 116.28333725 -3.93330603 116.28333725 -6 115.375 C-7.75 113.875 -7.75 113.875 -9 112.375 C-9 111.715 -9 111.055 -9 110.375 C-9.598125 110.106875 -10.19625 109.83875 -10.8125 109.5625 C-13 108.375 -13 108.375 -14.375 106.9296875 C-19.51108255 102.01583929 -28.58020576 99.375 -35.59375 99.375 C-46.65458292 100.12067413 -55.82889165 102.85686111 -63.59765625 111.0625 C-65 112.375 -65 112.375 -67 112.375 C-67.2475 113.179375 -67.495 113.98375 -67.75 114.8125 C-69 117.375 -69 117.375 -71.125 118.1875 C-72.053125 118.2803125 -72.053125 118.2803125 -73 118.375 C-73.13341797 119.26251953 -73.13341797 119.26251953 -73.26953125 120.16796875 C-74.1912271 122.95277172 -75.40925105 123.86924036 -77.6875 125.6875 C-81.04150865 128.48450364 -83.85049855 131.38400366 -86.62890625 134.7421875 C-89.68654558 138.38347878 -93.01263916 141.76259117 -97 144.375 C-97.66 144.375 -98.32 144.375 -99 144.375 C-99.20496094 144.90867188 -99.40992188 145.44234375 -99.62109375 145.9921875 C-101.57832646 149.37437434 -104.2596965 151.80537488 -107.0625 154.5 C-111.0044894 158.07053366 -111.0044894 158.07053366 -114 162.375 C-114.66 162.375 -115.32 162.375 -116 162.375 C-116.27585938 163.10074219 -116.55171875 163.82648438 -116.8359375 164.57421875 C-118 167.375 -118 167.375 -119.2890625 169.70703125 C-123.88648134 178.24317441 -124.84106586 187.8597718 -122.1953125 197.22265625 C-121.26020305 199.39370494 -120.24044301 201.3653934 -119 203.375 C-118.4225 204.344375 -117.845 205.31375 -117.25 206.3125 C-116.8375 206.993125 -116.425 207.67375 -116 208.375 C-116 209.035 -116 209.695 -116 210.375 C-115.34 210.375 -114.68 210.375 -114 210.375 C-112.5625 211.87109375 -112.5625 211.87109375 -111 213.8125 C-108.85474956 216.52688238 -108.85474956 216.52688238 -106 218.375 C-106 219.035 -106 219.695 -106 220.375 C-105.34 220.375 -104.68 220.375 -104 220.375 C-102.4140625 222.01953125 -102.4140625 222.01953125 -100.625 224.1875 C-98.76433718 226.43750857 -97.13127297 228.27850285 -94.7734375 230.01171875 C-94.18820312 230.46160156 -93.60296875 230.91148437 -93 231.375 C-93 232.035 -93 232.695 -93 233.375 C-92.43023437 233.60574219 -91.86046875 233.83648437 -91.2734375 234.07421875 C-88.42462232 235.70421094 -86.75478711 237.69527543 -84.625 240.1875 C-80.9923666 244.34699716 -80.9923666 244.34699716 -76.875 248 C-73.7527675 250.57923555 -71.27746043 253.39565749 -68.6484375 256.4609375 C-61.57016845 264.67978071 -54.65287612 270.02105802 -44 272.375 C-42.7625 272.66375 -41.525 272.9525 -40.25 273.25 C-32.27399926 274.065542 -23.67371245 271.59496737 -17 267.375 C-16.34 267.375 -15.68 267.375 -15 267.375 C-15 266.715 -15 266.055 -15 265.375 C-14.319375 265.00375 -13.63875 264.6325 -12.9375 264.25 C-9.49207074 262.05078984 -7.37686329 259.46628356 -4.76171875 256.36328125 C-2.391436 253.68817278 0.21568055 251.6145613 3 249.375 C5.52093083 246.97411349 7.82533581 244.59333024 10 241.875 C15.63636364 234.82954545 15.63636364 234.82954545 20 233.375 C20.33 232.385 20.66 231.395 21 230.375 C26.32379616 226.63395405 30.54459458 226.04109972 37 226.375 C40.4375 227.375 40.4375 227.375 43 228.375 C43 229.035 43 229.695 43 230.375 C43.5775 230.436875 44.155 230.49875 44.75 230.5625 C48.02565649 231.74537596 49.11184622 233.47983088 51 236.375 C53.28731227 242.55074314 53.87707155 247.69762368 51.8125 254 C49.90740412 257.54741992 47.97275771 259.68536207 45 262.375 C42.51664538 264.79778499 40.1680052 267.1649935 38 269.875 C32.36363636 276.92045455 32.36363636 276.92045455 28 278.375 C26.79117904 280.37516466 26.79117904 280.37516466 26 282.375 C25.34 282.375 24.68 282.375 24 282.375 C23.6596875 283.2103125 23.6596875 283.2103125 23.3125 284.0625 C15.49024724 297.84456438 -3.623378 306.81190218 -18 311.375 C-20.91445205 311.99611273 -23.08893119 312.3117159 -26 312.375 C-27.18335938 312.40207031 -28.36671875 312.42914063 -29.5859375 312.45703125 C-33.06367767 312.50813101 -36.53585249 312.48018111 -40.01318359 312.41210938 C-41.7963251 312.3788042 -43.57984798 312.3676604 -45.36328125 312.359375 C-57.26039378 311.94453172 -67.87719045 307.36579424 -78 301.375 C-78.66 301.045 -79.32 300.715 -80 300.375 C-80 299.715 -80 299.055 -80 298.375 C-81.0828125 298.00375 -81.0828125 298.00375 -82.1875 297.625 C-87.84321987 295.11134673 -91.42127418 290.91010441 -95.3515625 286.27734375 C-96.95270861 284.36667551 -96.95270861 284.36667551 -98.7109375 282.75390625 C-100 281.375 -100 281.375 -100 279.375 C-100.721875 279.148125 -101.44375 278.92125 -102.1875 278.6875 C-105.56218281 277.11264802 -107.48030013 275.09362354 -110 272.375 C-110.598125 271.83875 -111.19625 271.3025 -111.8125 270.75 C-113 269.375 -113 269.375 -113 266.375 C-113.99 266.375 -114.98 266.375 -116 266.375 C-116 265.715 -116 265.055 -116 264.375 C-116.66 264.375 -117.32 264.375 -118 264.375 C-119.515625 262.80078125 -119.515625 262.80078125 -121.25 260.6875 C-123.41897174 258.12865111 -125.40724173 256.03563189 -128 253.875 C-131.11886801 251.27594332 -133.58990266 248.4969537 -136.2109375 245.4140625 C-137.91864921 243.46771858 -139.69982608 241.67202903 -141.5625 239.875 C-145.154102 236.33160742 -148.11855065 232.50855547 -151 228.375 C-151.64775391 227.48748047 -151.64775391 227.48748047 -152.30859375 226.58203125 C-163.27383192 210.56116926 -165.20419797 189.38038086 -161.8125 170.6875 C-160.25586573 163.74535382 -158.34961239 156.68615993 -155 150.375 C-154.01 150.045 -153.02 149.715 -152 149.375 C-151.690625 148.240625 -151.38125 147.10625 -151.0625 145.9375 C-150 142.375 -150 142.375 -148 141.25 C-147.01 140.816875 -147.01 140.816875 -146 140.375 C-145.31246699 138.71683216 -144.64438717 137.05040664 -144 135.375 C-143.01 135.045 -142.02 134.715 -141 134.375 C-140.67 133.715 -140.34 133.055 -140 132.375 C-139 130.375 -139 130.375 -136 129.375 C-135.31073482 128.05320738 -134.64768089 126.71765844 -134 125.375 C-132.73048423 123.94535271 -131.40490598 122.56455365 -130.04296875 121.22265625 C-129.25986328 120.44599609 -128.47675781 119.66933594 -127.66992188 118.86914062 C-126.44112305 117.66547852 -126.44112305 117.66547852 -125.1875 116.4375 C-124.37990234 115.63892578 -123.57230469 114.84035156 -122.74023438 114.01757812 C-121.1782069 112.47346087 -119.6143097 110.93123221 -118.04833984 109.39111328 C-115.68560029 107.06554674 -113.34013248 104.72330048 -111 102.375 C-94.59375 85.96875 -94.59375 85.96875 -92.72753906 84.10498047 C-91.21353812 82.5888399 -89.70765322 81.06460368 -88.203125 79.5390625 C-86 77.375 -86 77.375 -83.25 75.25 C-80.74947545 73.50068403 -80.74947545 73.50068403 -80 70.375 C-78.3984375 68.83203125 -78.3984375 68.83203125 -76.375 67.1875 C-73.48385367 64.74391547 -70.93910682 62.26933183 -68.5 59.375 C-66.18024938 56.63443294 -63.80615453 54.25329418 -61.0625 51.9375 C-58.10177299 49.4331471 -55.53650375 46.80860806 -53 43.875 C-49.92817471 40.33104592 -46.7068026 37.28001222 -43.13671875 34.25 C-37.49557452 29.29981859 -32.23672141 23.9019607 -27.375 18.1875 C-24.43661521 14.74896461 -21.23059966 11.82493048 -17.78125 8.90625 C-15.87628871 7.31475071 -15.87628871 7.31475071 -13.8125 5.125 C-9.48466529 0.94640097 -5.9813141 -0.03867229 0 0 Z " fill="#0B0B09" transform="translate(364,31.625)"/>
<path d="M0 0 C1.3050499 -0.00511093 2.61009979 -0.01022186 3.95469666 -0.01548767 C7.51459273 -0.02881039 11.0743822 -0.02946405 14.63429832 -0.02692437 C17.61386284 -0.02585039 20.59340615 -0.03074875 23.5729661 -0.03552979 C30.60481273 -0.04660102 37.63660592 -0.0470754 44.66845703 -0.04101562 C51.90760704 -0.03497294 59.14656283 -0.04729972 66.38567972 -0.06858569 C72.61692491 -0.08623012 78.84810842 -0.09219871 85.07937765 -0.08894795 C88.79410689 -0.08713997 92.50869746 -0.08972282 96.22340393 -0.10366249 C100.36651128 -0.11863021 104.50922557 -0.10924595 108.65234375 -0.09765625 C109.87336288 -0.10529999 111.09438202 -0.11294373 112.35240173 -0.12081909 C118.87288629 -0.08053473 123.94041238 0.36752406 129.82617188 3.2746582 C131.13867188 5.3996582 131.13867188 5.3996582 131.82617188 7.2746582 C132.81617188 7.6046582 133.80617188 7.9346582 134.82617188 8.2746582 C137.59549031 14.22356448 139.23091971 19.30390432 136.94726562 25.7590332 C134.24803922 31.78106967 131.54112702 34.99385062 125.82617188 38.2746582 C121.86414424 39.59533408 117.97379143 39.65023332 113.83520508 39.8359375 C112.90938535 39.87819552 111.98356562 39.92045355 111.02969074 39.96399212 C98.91629602 40.46036378 86.80238208 40.37068877 74.68164062 40.29418945 C73.43110712 40.28723242 72.18057362 40.28027538 70.89214516 40.27310753 C64.97294229 40.239847 59.05379686 40.20239216 53.13466853 40.15774232 C46.35614113 40.10669954 39.57779602 40.07262977 32.79910773 40.05256158 C26.87279289 40.03383953 20.94674644 39.99342828 15.02059364 39.9452877 C12.51805582 39.92799321 10.01546338 39.91726315 7.51286888 39.91333961 C4.02467694 39.90625411 0.53753512 39.87433837 -2.95043945 39.83642578 C-3.97337097 39.8398851 -4.99630249 39.84334442 -6.05023193 39.84690857 C-13.27639383 39.73090538 -18.70224046 38.27853672 -24.23242188 33.4934082 C-24.68746094 32.9262207 -25.1425 32.3590332 -25.61132812 31.7746582 C-26.08441406 31.2074707 -26.5575 30.6402832 -27.04492188 30.0559082 C-29.84537374 25.63720214 -29.64525502 20.3317831 -29.17382812 15.2746582 C-27.48522229 10.03109272 -25.16581615 6.08922454 -21.17382812 2.2746582 C-14.17728016 -0.12708528 -7.33945056 -0.01489156 0 0 Z " fill="#B4B3B1" transform="translate(327.173828125,198.725341796875)"/>
<path d="M0 0 C0 0.66 0 1.32 0 2 C0.5775 2.061875 1.155 2.12375 1.75 2.1875 C5.02565649 3.37037596 6.11184622 5.10483088 8 8 C10.28731227 14.17574314 10.87707155 19.32262368 8.8125 25.625 C6.90740412 29.17241992 4.97275771 31.31036207 2 34 C-0.48335462 36.42278499 -2.8319948 38.7899935 -5 41.5 C-10.63636364 48.54545455 -10.63636364 48.54545455 -15 50 C-16.20882096 52.00016466 -16.20882096 52.00016466 -17 54 C-17.66 54 -18.32 54 -19 54 C-19.226875 54.556875 -19.45375 55.11375 -19.6875 55.6875 C-27.50975276 69.46956438 -46.623378 78.43690218 -61 83 C-63.91445205 83.62111273 -66.08893119 83.9367159 -69 84 C-70.77503906 84.04060547 -70.77503906 84.04060547 -72.5859375 84.08203125 C-76.06367767 84.13313101 -79.53585249 84.10518111 -83.01318359 84.03710938 C-84.7963251 84.0038042 -86.57984798 83.9926604 -88.36328125 83.984375 C-100.26039378 83.56953172 -110.87719045 78.99079424 -121 73 C-121.66 72.67 -122.32 72.34 -123 72 C-123 71.34 -123 70.68 -123 70 C-123.66 69.67 -124.32 69.34 -125 69 C-123.90300781 68.90203125 -122.80601562 68.8040625 -121.67578125 68.703125 C-120.22126122 68.552981 -118.76683882 68.40188917 -117.3125 68.25 C-116.59126953 68.188125 -115.87003906 68.12625 -115.12695312 68.0625 C-110.24028342 67.52697455 -107.7271027 66.40210487 -104 63 C-103.34 63 -102.68 63 -102 63 C-101.690625 61.865625 -101.38125 60.73125 -101.0625 59.5625 C-100 56 -100 56 -99 55 C-98.48557607 49.1355672 -99.22818878 45.72541829 -102.22265625 40.6640625 C-102.47917969 40.11492187 -102.73570312 39.56578125 -103 39 C-102.67 38.34 -102.34 37.68 -102 37 C-101.38125 37.598125 -100.7625 38.19625 -100.125 38.8125 C-93.21346739 43.65057283 -83.88676987 45.72273047 -75.56640625 44.4921875 C-69.72764535 43.33780189 -65.05348591 42.19545468 -60 39 C-59.34 39 -58.68 39 -58 39 C-58 38.34 -58 37.68 -58 37 C-56.9790625 36.443125 -56.9790625 36.443125 -55.9375 35.875 C-52.49207074 33.67578984 -50.37686329 31.09128356 -47.76171875 27.98828125 C-45.391436 25.31317278 -42.78431945 23.2395613 -40 21 C-37.47906917 18.59911349 -35.17466419 16.21833024 -33 13.5 C-27.36363636 6.45454545 -27.36363636 6.45454545 -23 5 C-22.67 4.01 -22.34 3.02 -22 2 C-14.97249732 -2.93824512 -7.97692881 -3.11294783 0 0 Z " fill="#EAA340" transform="translate(407,260)"/>
<path d="M0 0 C0.66 0.33 1.32 0.66 2 1 C3.7015625 1.5878125 3.7015625 1.5878125 5.4375 2.1875 C13.77128216 5.33515153 21.09854223 9.84868635 28.1875 15.1875 C28.76459717 15.61554932 29.34169434 16.04359863 29.9362793 16.48461914 C31.54296875 17.73046875 31.54296875 17.73046875 34 20 C34 20.99 34 21.98 34 23 C34.556875 23.061875 35.11375 23.12375 35.6875 23.1875 C40.35060463 24.82588811 43.18279873 29.21182692 46.3125 32.875 C49.38983254 36.43822716 52.70746945 39.51908028 56.30078125 42.5546875 C58 44 58 44 60 46 C60 46.99 60 47.98 60 49 C60.60457031 49.10570312 61.20914063 49.21140625 61.83203125 49.3203125 C64.859997 50.26962068 66.23207046 52.19185568 67.953125 54.7734375 C70.50599146 60.20304153 70.35687777 66.02095055 69.3125 71.8125 C66.94283546 77.5673996 65.04398151 80.84235471 59.25 83.375 C53.72583364 85.29187764 49.22328895 86.37990475 43.609375 83.9765625 C39.98885186 82.04950986 36.68252165 80.1564056 34 77 C34 76.34 34 75.68 34 75 C33.43796875 74.7628125 32.8759375 74.525625 32.296875 74.28125 C29.48105958 72.71052303 27.52044584 70.78528536 25.25 68.5 C24.05117188 67.30890625 24.05117188 67.30890625 22.828125 66.09375 C21 64 21 64 21 62 C20.38125 61.7525 19.7625 61.505 19.125 61.25 C16.59641373 59.76259631 16.28160996 58.56321991 15 56 C13.06669397 54.90833725 13.06669397 54.90833725 11 54 C9.25 52.5 9.25 52.5 8 51 C8 50.34 8 49.68 8 49 C7.401875 48.731875 6.80375 48.46375 6.1875 48.1875 C4 47 4 47 2.625 45.5546875 C-2.51108255 40.64083929 -11.58020576 38 -18.59375 38 C-26.83804787 38.55579536 -35.12815479 40.18970835 -42 45 C-41.75 43.125 -41.75 43.125 -41 41 C-39.67532254 40.3162955 -38.34136367 39.65035814 -37 39 C-36.54560547 38.06994141 -36.54560547 38.06994141 -36.08203125 37.12109375 C-34.87940835 34.76360554 -33.6892271 33.68954363 -31.625 32.0625 C-28.64657005 29.62898031 -26.39469405 27.01554065 -24 24 C-23.34 24 -22.68 24 -22 24 C-21.73960937 23.40058594 -21.47921875 22.80117187 -21.2109375 22.18359375 C-19.91715749 19.85061626 -18.70531236 18.70222219 -16.625 17.0625 C-13.64657005 14.62898031 -11.39469405 12.01554065 -9 9 C-8.34 9 -7.68 9 -7 9 C-6.731875 8.360625 -6.46375 7.72125 -6.1875 7.0625 C-5 5 -5 5 -2 4 C-2 3.34 -2 2.68 -2 2 C-1.34 2 -0.68 2 0 2 C0 1.34 0 0.68 0 0 Z " fill="#EAA341" transform="translate(347,93)"/>
<path d="M0 0 C0.495 0.99 0.495 0.99 1 2 C-2.20194036 6.80291055 -5.69089175 9.033182 -11 11 C-14.17440685 11.596607 -17.28665782 11.71706962 -20.51171875 11.77734375 C-21.41597092 11.80698715 -22.32022308 11.83663055 -23.25187683 11.86717224 C-34.10815353 12.1624418 -44.95998453 11.87226929 -55.8125 11.5625 C-57.88474769 11.5090656 -59.95701348 11.45632823 -62.02929688 11.40429688 C-67.01977525 11.27751939 -72.00991753 11.14147389 -77 11 C-77 10.67 -77 10.34 -77 10 C-59.55624278 8.05230803 -42.2821169 7.82447047 -24.75415039 7.98632812 C-23.44671623 7.99630577 -23.44671623 7.99630577 -22.11286926 8.00648499 C-20.46811577 8.02001989 -18.82339196 8.03832073 -17.17875671 8.0622406 C-13.31683794 8.0958773 -9.75231003 7.9520717 -6 7 C-6 6.34 -6 5.68 -6 5 C-4.04072937 3.2856382 -2.04119788 1.61594832 0 0 Z " fill="#CFCECC" transform="translate(461,227)"/>
<path d="M0 0 C1.91921265 -0.0009668 1.91921265 -0.0009668 3.87719727 -0.00195312 C20.13893155 0.09205151 20.13893155 0.09205151 25.5 1.1875 C25.995 2.1775 25.995 2.1775 26.5 3.1875 C3.4 3.1875 -19.7 3.1875 -43.5 3.1875 C-43.5 2.8575 -43.5 2.5275 -43.5 2.1875 C-28.98882966 0.84641605 -14.56869949 -0.01593344 0 0 Z " fill="#D3D2D2" transform="translate(356.5,234.8125)"/>
<path d="M0 0 C0 0.66 0 1.32 0 2 C1.32 2.33 2.64 2.66 4 3 C3.34 3.66 2.68 4.32 2 5 C2 4.34 2 3.68 2 3 C1.04287109 3.01740234 1.04287109 3.01740234 0.06640625 3.03515625 C-0.75988281 3.04417969 -1.58617187 3.05320312 -2.4375 3.0625 C-3.67306641 3.07990234 -3.67306641 3.07990234 -4.93359375 3.09765625 C-7 3 -7 3 -8 2 C-9.64933228 2.06399526 -11.29615131 2.20073916 -12.9375 2.375 C-13.83339844 2.46523438 -14.72929687 2.55546875 -15.65234375 2.6484375 C-18.01469808 2.87825815 -18.01469808 2.87825815 -20 4 C-20.268125 4.5775 -20.53625 5.155 -20.8125 5.75 C-22.40786859 8.77280364 -24.44247075 10.75436456 -27 13 C-27.99 13 -28.98 13 -30 13 C-30.226875 13.639375 -30.45375 14.27875 -30.6875 14.9375 C-32 17 -32 17 -34.625 17.75 C-35.40875 17.8325 -36.1925 17.915 -37 18 C-27.3 6.43333333 -27.3 6.43333333 -23 5 C-22.67 4.01 -22.34 3.02 -22 2 C-14.97249732 -2.93824512 -7.97692881 -3.11294783 0 0 Z " fill="#EDC27A" transform="translate(407,260)"/>
<path d="M0 0 C0.48726563 0.32613281 0.97453125 0.65226562 1.4765625 0.98828125 C7.49252144 4.69629958 13.21855183 6.11605123 20.15625 7.32421875 C21.0946875 7.54722656 22.033125 7.77023437 23 8 C23.33 8.66 23.66 9.32 24 10 C19.71 10 15.42 10 11 10 C11 9.34 11 8.68 11 8 C10.01 8 9.02 8 8 8 C7.34 11.96 6.68 15.92 6 20 C5.67 20 5.34 20 5 20 C4.89042969 19.11957031 4.78085937 18.23914063 4.66796875 17.33203125 C4.43013672 15.58986328 4.43013672 15.58986328 4.1875 13.8125 C3.96126953 12.08966797 3.96126953 12.08966797 3.73046875 10.33203125 C2.99306648 6.96837279 1.85486563 4.86106672 0 2 C0 1.34 0 0.68 0 0 Z " fill="#E2B069" transform="translate(304,297)"/>
<path d="M0 0 C5.5 1.46666667 5.5 1.46666667 7.875 4 C9 6 9 6 9 8 C10.1446875 8.1546875 10.1446875 8.1546875 11.3125 8.3125 C15.48922316 9.38096406 16.65312982 11.47969473 19 15 C19 15.99 19 16.98 19 18 C20.98 18.66 22.96 19.32 25 20 C25.33 21.98 25.66 23.96 26 26 C23.95880212 24.38405168 21.95927063 22.7143618 20 21 C20 20.34 20 19.68 20 19 C19.38125 18.7525 18.7625 18.505 18.125 18.25 C15.59641373 16.76259631 15.28160996 15.56321991 14 13 C12.06669397 11.90833725 12.06669397 11.90833725 10 11 C8.25 9.5 8.25 9.5 7 8 C7 7.34 7 6.68 7 6 C6.401875 5.7525 5.80375 5.505 5.1875 5.25 C2.71352479 3.83629988 1.56629745 2.34944617 0 0 Z " fill="#EABA74" transform="translate(348,136)"/>
<path d="M0 0 C6.75 -0.125 6.75 -0.125 9 1 C9 1.66 9 2.32 9 3 C11.16663452 3.14631009 13.33331029 3.29200947 15.5 3.4375 C16.49713013 3.50626343 16.49713013 3.50626343 17.5144043 3.57641602 C21.17134233 3.82533544 24.82688513 4.04633632 28.48828125 4.21875 C29.21144531 4.25556885 29.93460937 4.2923877 30.6796875 4.33032227 C32.08427434 4.40090533 33.48925588 4.46408457 34.89453125 4.51928711 C39.77577377 4.77577377 39.77577377 4.77577377 42 7 C27.03507405 7.17289388 13.97098834 7.19662494 0 1 C0 0.67 0 0.34 0 0 Z " fill="#E9B061" transform="translate(296,337)"/>
<path d="M0 0 C0.66 0.33 1.32 0.66 2 1 C3.04449911 4.13349732 2.93423645 4.98968256 2 8 C1.01 8 0.02 8 -1 8 C-1 7.34 -1 6.68 -1 6 C-1.78375 6.78375 -2.5675 7.5675 -3.375 8.375 C-4.91666667 9.91666667 -6.45833333 11.45833333 -8 13 C-8.99 13 -9.98 13 -11 13 C-11.061875 13.61875 -11.12375 14.2375 -11.1875 14.875 C-12 17 -12 17 -14.5625 18.25 C-15.366875 18.4975 -16.17125 18.745 -17 19 C-15.4411666 15.17377257 -13.04566418 12.74852621 -10 10 C-9.01 9.67 -8.02 9.34 -7 9 C-6.67 8.34 -6.34 7.68 -6 7 C-5 5 -5 5 -2 4 C-2 3.34 -2 2.68 -2 2 C-1.34 2 -0.68 2 0 2 C0 1.34 0 0.68 0 0 Z " fill="#D29A4D" transform="translate(347,93)"/>
<path d="M0 0 C0.33 0 0.66 0 1 0 C2.71304047 7.06629195 2.47839089 12.52299628 -1 19 C-3.375 21.625 -3.375 21.625 -6 24 C-6.928125 24.928125 -7.85625 25.85625 -8.8125 26.8125 C-9.534375 27.534375 -10.25625 28.25625 -11 29 C-11.33 28.01 -11.66 27.02 -12 26 C-11.01 26 -10.02 26 -9 26 C-9 24.35 -9 22.7 -9 21 C-7.68 21 -6.36 21 -5 21 C-2.33020717 15.85111382 -0.75998449 11.52643142 -0.375 5.6875 C-0.30023438 4.61886719 -0.22546875 3.55023438 -0.1484375 2.44921875 C-0.09945313 1.64097656 -0.05046875 0.83273437 0 0 Z " fill="#EDB778" transform="translate(415,270)"/>
<path d="M0 0 C0 0.66 0 1.32 0 2 C2.97 2.33 5.94 2.66 9 3 C9 3.33 9 3.66 9 4 C7.97519531 4.25394531 6.95039063 4.50789062 5.89453125 4.76953125 C4.53374653 5.11676597 3.17307535 5.46444584 1.8125 5.8125 C1.13896484 5.97814453 0.46542969 6.14378906 -0.22851562 6.31445312 C-4.26331135 7.35759543 -7.54834352 8.66091629 -11 11 C-10.75 9.125 -10.75 9.125 -10 7 C-8.67532254 6.3162955 -7.34136367 5.65035814 -6 5 C-4.86649466 2.98330173 -4.86649466 2.98330173 -4 1 C-2 0 -2 0 0 0 Z " fill="#E6B267" transform="translate(316,127)"/>
<path d="M0 0 C0.33 0.66 0.66 1.32 1 2 C-8.9 2 -18.8 2 -29 2 C-29 1.34 -29 0.68 -29 0 C-19.35137686 -0.87837606 -9.61659292 -1.64081333 0 0 Z " fill="#CECDCB" transform="translate(382,236)"/>
<path d="M0 0 C0.66 0.33 1.32 0.66 2 1 C1 4 1 4 -2 6 C-3.32 6 -4.64 6 -6 6 C-6 6.66 -6 7.32 -6 8 C-7.875 9.75 -7.875 9.75 -11 11 C-14.42383493 10.66023012 -17.6820164 9.89553344 -21 9 C-21 8.67 -21 8.34 -21 8 C-20.04738281 7.81824219 -19.09476562 7.63648438 -18.11328125 7.44921875 C-16.23189453 7.07216797 -16.23189453 7.07216797 -14.3125 6.6875 C-12.45044922 6.32205078 -12.45044922 6.32205078 -10.55078125 5.94921875 C-7.18072788 5.04831339 -4.90515205 3.86871943 -2 2 C-1.34 2 -0.68 2 0 2 C0 1.34 0 0.68 0 0 Z " fill="#EDBE7C" transform="translate(349,297)"/>
<path d="M0 0 C1.32 0 2.64 0 4 0 C2.75122171 3.74633486 0.93952555 5.41041797 -2 8 C-2.99 8 -3.98 8 -5 8 C-5.226875 8.639375 -5.45375 9.27875 -5.6875 9.9375 C-7 12 -7 12 -9.625 12.75 C-10.40875 12.8325 -11.1925 12.915 -12 13 C-8.49058007 8.81522779 -4.91806547 4.80612075 -1 1 C-0.67 0.67 -0.34 0.34 0 0 Z " fill="#E8B265" transform="translate(382,265)"/>
<path d="M0 0 C3.86358168 4.61137168 5.33487186 7.66802218 5.30078125 13.79296875 C4.78130177 17.60473379 2.94751089 20.73096387 1 24 C0.67 24 0.34 24 0 24 C-0.125 18.25 -0.125 18.25 1 16 C1.66 16 2.32 16 3 16 C2.69217504 14.35328588 2.37860766 12.70764424 2.0625 11.0625 C1.88847656 10.14597656 1.71445312 9.22945313 1.53515625 8.28515625 C1.22285012 6.04710156 1.22285012 6.04710156 0 5 C-0.04063832 3.33382885 -0.042721 1.66611905 0 0 Z " fill="#392108" transform="translate(304,299)"/>
<path d="M0 0 C0.99 0.66 1.98 1.32 3 2 C4.93137682 2.27356843 4.93137682 2.27356843 7.01171875 2.1953125 C7.76904297 2.18886719 8.52636719 2.18242187 9.30664062 2.17578125 C10.09232422 2.15902344 10.87800781 2.14226562 11.6875 2.125 C12.88342773 2.11146484 12.88342773 2.11146484 14.10351562 2.09765625 C16.069139 2.07411585 18.03460775 2.03824547 20 2 C16.32466355 5.67533645 11.95675599 5.21222044 6.9375 5.3125 C5.70902344 5.34988281 4.48054688 5.38726562 3.21484375 5.42578125 C0 5 0 5 -1.93359375 2.98046875 C-2.28550781 2.32691406 -2.63742187 1.67335938 -3 1 C-2.01 0.67 -1.02 0.34 0 0 Z " fill="#1B0900" transform="translate(280,324)"/>
<path d="M0 0 C-1.93694678 0.81381795 -3.87457711 1.62600916 -5.8125 2.4375 C-6.89144531 2.88996094 -7.97039062 3.34242188 -9.08203125 3.80859375 C-13.67113287 5.68232333 -17.04352155 6.09351846 -22 6 C-22.33 5.34 -22.66 4.68 -23 4 C-20.36 4 -17.72 4 -15 4 C-15 3.34 -15 2.68 -15 2 C-13.06524329 1.46906676 -11.12706845 0.95057683 -9.1875 0.4375 C-8.10855469 0.14746094 -7.02960938 -0.14257812 -5.91796875 -0.44140625 C-3 -1 -3 -1 0 0 Z " fill="#ECC07A" transform="translate(361,337)"/>
<path d="M0 0 C1.38671875 2.6171875 1.38671875 2.6171875 2 5 C1.35675781 4.71382812 0.71351563 4.42765625 0.05078125 4.1328125 C-3.83804232 2.68881911 -7.77168412 1.78951826 -11.8125 0.875 C-12.99489258 0.60236328 -12.99489258 0.60236328 -14.20117188 0.32421875 C-16.13329636 -0.12075537 -18.06653939 -0.56086782 -20 -1 C-20 -1.33 -20 -1.66 -20 -2 C-13.29250537 -3.71587072 -6.35759696 -2.68530669 0 0 Z " fill="#EBBA6F" transform="translate(345,131)"/>
<path d="M0 0 C0 3.48069506 -0.2978567 4.95032658 -2 8 C-4.53708741 10.19535727 -7.22301932 12.12069447 -10 14 C-10.66 13.34 -11.32 12.68 -12 12 C-11.55269531 11.63648438 -11.10539062 11.27296875 -10.64453125 10.8984375 C-6.61206348 7.5452127 -3.23995546 4.12357967 0 0 Z " fill="#ECBB76" transform="translate(363,284)"/>
<path d="M0 0 C0.66 0 1.32 0 2 0 C1.34 1.32 0.68 2.64 0 4 C-0.66 4 -1.32 4 -2 4 C-2.20625 4.556875 -2.4125 5.11375 -2.625 5.6875 C-4.55000774 8.92501302 -7.03850902 10.68231141 -10 13 C-10 11.02 -10 9.04 -10 7 C-8.35 6.67 -6.7 6.34 -5 6 C-4.67 5.01 -4.34 4.02 -4 3 C-1.9375 2.3125 -1.9375 2.3125 0 2 C0 1.34 0 0.68 0 0 Z " fill="#E9B978" transform="translate(390,310)"/>
<path d="M0 0 C1.32 0 2.64 0 4 0 C4 0.66 4 1.32 4 2 C4.99 2.33 5.98 2.66 7 3 C7 3.66 7 4.32 7 5 C8.32 4.67 9.64 4.34 11 4 C11 5.65 11 7.3 11 9 C7.66272214 7.82744291 5.22562513 6.81131596 3 4 C3 3.34 3 2.68 3 2 C2.01 1.67 1.02 1.34 0 1 C0 0.67 0 0.34 0 0 Z " fill="#EBC07A" transform="translate(378,166)"/>
<path d="M0 0 C1.7290774 -0.02725341 3.45828176 -0.04650987 5.1875 -0.0625 C6.15042969 -0.07410156 7.11335938 -0.08570313 8.10546875 -0.09765625 C10.85576513 -0.00486622 13.32479591 0.37888315 16 1 C12.21916742 3.52055505 8.38281981 3.46702178 4 3 C1.5 2 1.5 2 0 1 C0 0.67 0 0.34 0 0 Z " fill="#EEBE7C" transform="translate(389,175)"/>
<path d="M0 0 C1.65 0 3.3 0 5 0 C5.33 0.99 5.66 1.98 6 3 C7.32 3 8.64 3 10 3 C10.33 3.66 10.66 4.32 11 5 C11.99 5.66 12.98 6.32 14 7 C11 8 11 8 9.24609375 7.2578125 C8.64925781 6.88398438 8.05242187 6.51015625 7.4375 6.125 C6.83808594 5.75632812 6.23867188 5.38765625 5.62109375 5.0078125 C4.81865234 4.50894531 4.81865234 4.50894531 4 4 C3.34 3.67 2.68 3.34 2 3 C2 2.34 2 1.68 2 1 C1.34 0.67 0.68 0.34 0 0 Z " fill="#E4B96B" transform="translate(282,329)"/>
<path d="M0 0 C0.33 0.66 0.66 1.32 1 2 C-1.63848309 5.61569905 -3.95293333 8.02835214 -8 10 C-8.99 10 -9.98 10 -11 10 C-11 9.34 -11 8.68 -11 8 C-9.35 7.67 -7.7 7.34 -6 7 C-6 6.34 -6 5.68 -6 5 C-4.04072937 3.2856382 -2.04119788 1.61594832 0 0 Z " fill="#D3D2D1" transform="translate(461,227)"/>
<path d="M0 0 C0.66 0.66 1.32 1.32 2 2 C1.67 2.99 1.34 3.98 1 5 C1 4.34 1 3.68 1 3 C0.34 3 -0.32 3 -1 3 C-1.12375 3.5775 -1.2475 4.155 -1.375 4.75 C-2.00648824 7.02335767 -2.88858191 8.9253529 -4 11 C-4.66 11 -5.32 11 -6 11 C-6.8125 9.3125 -6.8125 9.3125 -7 7 C-4.6875 4.375 -4.6875 4.375 -2 2 C-1.34 1.34 -0.68 0.68 0 0 Z " fill="#D19745" transform="translate(322,118)"/>
<path d="M0 0 C4.44536093 2.99206986 7.84778899 5.58690458 11 10 C8.69 9.34 6.38 8.68 4 8 C4 7.34 4 6.68 4 6 C3.34 6 2.68 6 2 6 C1.34 4.02 0.68 2.04 0 0 Z " fill="#E9BB77" transform="translate(394,128)"/>
<path d="M0 0 C2.0625 0.4375 2.0625 0.4375 4 1 C3.34 1.66 2.68 2.32 2 3 C1.01 3 0.02 3 -1 3 C-1 3.66 -1 4.32 -1 5 C-1.66 5 -2.32 5 -3 5 C-3 5.66 -3 6.32 -3 7 C-4.95927063 8.7143618 -6.95880212 10.38405168 -9 12 C-8.67 10.35 -8.34 8.7 -8 7 C-7.34 7 -6.68 7 -6 7 C-5.67 6.01 -5.34 5.02 -5 4 C-4.01 4 -3.02 4 -2 4 C-1.67 3.01 -1.34 2.02 -1 1 C-0.67 0.67 -0.34 0.34 0 0 Z " fill="#2B1D13" transform="translate(348,90)"/>
<path d="M0 0 C6.75 -0.125 6.75 -0.125 9 1 C9 1.66 9 2.32 9 3 C11.31 3 13.62 3 16 3 C13 5 13 5 10.25 4.8125 C6.5751982 3.89379955 3.43787652 2.5814232 0 1 C0 0.67 0 0.34 0 0 Z " fill="#EBBB73" transform="translate(296,337)"/>
<path d="M0 0 C0.99 0.33 1.98 0.66 3 1 C0.89851796 4.98175544 -1.36905358 7.35039045 -5 10 C-5 8.68 -5 7.36 -5 6 C-4.34 6 -3.68 6 -3 6 C-2.67 4.68 -2.34 3.36 -2 2 C-1.34 2 -0.68 2 0 2 C0 1.34 0 0.68 0 0 Z " fill="#EBB66D" transform="translate(400,298)"/>
<path d="M0 0 C1.67299959 0.65061095 3.33859237 1.32033324 5 2 C5.7425 2.2475 6.485 2.495 7.25 2.75 C9 4 9 4 9.75 7.125 C9.87375 8.548125 9.87375 8.548125 10 10 C7.95880212 8.38405168 5.95927063 6.7143618 4 5 C4 4.34 4 3.68 4 3 C2.68 2.34 1.36 1.68 0 1 C0 0.67 0 0.34 0 0 Z " fill="#EDCD8D" transform="translate(364,152)"/>
<path d="M0 0 C4.19360449 0.67097672 7.40334352 2.8558394 11 5 C7.69183862 6.10272046 5.29888363 6.21537818 2 5 C0.6875 2.4375 0.6875 2.4375 0 0 Z " fill="#EEC07E" transform="translate(357,98)"/>
<path d="M0 0 C1.32 0 2.64 0 4 0 C4 0.66 4 1.32 4 2 C0.37 3.98 -3.26 5.96 -7 8 C-7 6.68 -7 5.36 -7 4 C-5.35 4 -3.7 4 -2 4 C-2 3.34 -2 2.68 -2 2 C-1.34 1.34 -0.68 0.68 0 0 Z " fill="#EAC37D" transform="translate(369,328)"/>
<path d="M0 0 C0.33 0 0.66 0 1 0 C1 1.65 1 3.3 1 5 C0.01 5.33 -0.98 5.66 -2 6 C-2.66 5.67 -3.32 5.34 -4 5 C-4.33 5.66 -4.66 6.32 -5 7 C-5.99 7.495 -5.99 7.495 -7 8 C-7.66 7.34 -8.32 6.68 -9 6 C-7.02 4.68 -5.04 3.36 -3 2 C-2.34 2.33 -1.68 2.66 -1 3 C-0.67 2.01 -0.34 1.02 0 0 Z " fill="#C9913D" transform="translate(307,321)"/>
<path d="M0 0 C2.64 0 5.28 0 8 0 C8 0.66 8 1.32 8 2 C9.32 2.33 10.64 2.66 12 3 C11.34 3.66 10.68 4.32 10 5 C10 4.34 10 3.68 10 3 C7.03 3 4.06 3 1 3 C0.67 2.01 0.34 1.02 0 0 Z " fill="#EBB66F" transform="translate(399,260)"/>
<path d="M0 0 C6.6 0.33 13.2 0.66 20 1 C20 1.33 20 1.66 20 2 C17.41718562 2.24927162 14.83587772 2.47499275 12.25 2.6875 C11.15558594 2.79674805 11.15558594 2.79674805 10.0390625 2.90820312 C5.11764294 3.28849464 4.15975666 3.11981749 0 0 Z " fill="#BEBEBC" transform="translate(379,235)"/>
<path d="M0 0 C1.32 0 2.64 0 4 0 C3.375 2.375 3.375 2.375 2 5 C-1.125 6.3125 -1.125 6.3125 -4 7 C-4 6.01 -4 5.02 -4 4 C-2.35 3.67 -0.7 3.34 1 3 C0.67 2.01 0.34 1.02 0 0 Z " fill="#EFC282" transform="translate(409,169)"/>
<path d="M0 0 C0 3.90838866 -1.50567876 5.11594107 -4 8 C-5.32 7.67 -6.64 7.34 -8 7 C-5.42215154 4.35247996 -3.08351902 2.05567935 0 0 Z " fill="#ECBF79" transform="translate(378,270)"/>
<path d="M0 0 C2.02045442 0.60183749 4.02111039 1.27306096 6 2 C6.33 2.66 6.66 3.32 7 4 C6.34 4 5.68 4 5 4 C4.67 4.99 4.34 5.98 4 7 C0 2.25 0 2.25 0 0 Z " fill="#383838" transform="translate(369,32)"/>
<path d="M0 0 C2.40133271 1.60088848 4.702779 3.25728062 7 5 C3.6875 5.25 3.6875 5.25 0 5 C-1.9375 3 -1.9375 3 -3 1 C-2.01 0.67 -1.02 0.34 0 0 Z " fill="#4E4336" transform="translate(280,324)"/>
<path d="M0 0 C4.12769474 2.06384737 4.3359391 2.19643223 6 6 C6.66 6.66 7.32 7.32 8 8 C7.01 9.485 7.01 9.485 6 11 C4.02 7.37 2.04 3.74 0 0 Z " fill="#333332" transform="translate(209,252)"/>
<path d="M0 0 C1.485 0.99 1.485 0.99 3 2 C3 2.99 3 3.98 3 5 C3.61875 5.103125 4.2375 5.20625 4.875 5.3125 C7 6 7 6 9 9 C8.443125 8.71125 7.88625 8.4225 7.3125 8.125 C4.91505355 6.9586747 2.48403061 5.9660119 0 5 C0 3.35 0 1.7 0 0 Z " fill="#ECC688" transform="translate(378,111)"/>
<path d="M0 0 C1.32 0.99 2.64 1.98 4 3 C3.01 3.33 2.02 3.66 1 4 C0.67 4.66 0.34 5.32 0 6 C-0.33 6.66 -0.66 7.32 -1 8 C-1.99 8.33 -2.98 8.66 -4 9 C-3.46930939 5.17902761 -2.50298434 2.93828597 0 0 Z " fill="#4C4D4D" transform="translate(356,81)"/>
<path d="M0 0 C0.66 0.33 1.32 0.66 2 1 C0.02 3.31 -1.96 5.62 -4 8 C-4.66 7.67 -5.32 7.34 -6 7 C-5.8125 5.1875 -5.8125 5.1875 -5 3 C-2.5625 1.1875 -2.5625 1.1875 0 0 Z " fill="#2A1603" transform="translate(334,104)"/>
<path d="M0 0 C2.97 0.99 5.94 1.98 9 3 C8.01 3.495 8.01 3.495 7 4 C6.67 4.66 6.34 5.32 6 6 C5.67 5.01 5.34 4.02 5 3 C3.35 2.67 1.7 2.34 0 2 C0 1.34 0 0.68 0 0 Z " fill="#C9C5C5" transform="translate(448,199)"/>
<path d="M0 0 C0 3.19219704 -0.23605791 4.39608549 -2 7 C-4.625 8.25 -4.625 8.25 -7 9 C-5.44499019 5.18315774 -2.96404505 2.80804268 0 0 Z " fill="#C9944B" transform="translate(337,103)"/>
<path d="M0 0 C2.64 1.98 5.28 3.96 8 6 C4.30581799 6 2.22163822 4.71820705 -1 3 C-0.67 2.01 -0.34 1.02 0 0 Z " fill="#EDC37F" transform="translate(369,104)"/>
<path d="M0 0 C0.33 0.99 0.66 1.98 1 3 C-0.65 4.65 -2.3 6.3 -4 8 C-4.33 7.01 -4.66 6.02 -5 5 C-3.625 3.5 -3.625 3.5 -2 2 C-1.34 2 -0.68 2 0 2 C0 1.34 0 0.68 0 0 Z " fill="#BA8F57" transform="translate(310,130)"/>
<path d="M0 0 C3.82946843 1.45255699 5.12050295 3.42895561 7 7 C4 7 4 7 2 6 C2 4.68 2 3.36 2 2 C1.34 2 0.68 2 0 2 C0 1.34 0 0.68 0 0 Z " fill="#ECB76D" transform="translate(387,121)"/>
<path d="M0 0 C0.66 0.99 1.32 1.98 2 3 C0.7260411 5.03833424 -0.61061923 7.03852126 -2 9 C-2.66 9 -3.32 9 -4 9 C-3.67 7.68 -3.34 6.36 -3 5 C-2.34 5 -1.68 5 -1 5 C-0.67 3.35 -0.34 1.7 0 0 Z " fill="#4E4E4D" transform="translate(213,176)"/>
<path d="M0 0 C0.99 1.32 1.98 2.64 3 4 C0.36 4.66 -2.28 5.32 -5 6 C-2.25 1.125 -2.25 1.125 0 0 Z " fill="#565655" transform="translate(322,65)"/>
<path d="M0 0 C0.66 0.33 1.32 0.66 2 1 C0.02 3.97 0.02 3.97 -2 7 C-2.99 6.34 -3.98 5.68 -5 5 C-4.34 5 -3.68 5 -3 5 C-2.5359375 4.0409375 -2.5359375 4.0409375 -2.0625 3.0625 C-1 1 -1 1 0 0 Z " fill="#C28D43" transform="translate(328,112)"/>
</svg>
